<svg width="50" height="50" viewBox="0 0 50 50" fill="none" xmlns="http://www.w3.org/2000/svg">
<g id="date_range">
<path id="Vector" d="M14.5833 22.9165H18.75V27.0832H14.5833V22.9165ZM43.75 12.4998V41.6665C43.75 43.9582 41.875 45.8332 39.5833 45.8332H10.4167C8.10417 45.8332 6.25 43.9582 6.25 41.6665L6.27083 12.4998C6.27083 10.2082 8.10417 8.33317 10.4167 8.33317H12.5V4.1665H16.6667V8.33317H33.3333V4.1665H37.5V8.33317H39.5833C41.875 8.33317 43.75 10.2082 43.75 12.4998ZM10.4167 16.6665H39.5833V12.4998H10.4167V16.6665ZM39.5833 41.6665V20.8332H10.4167V41.6665H39.5833ZM31.25 27.0832H35.4167V22.9165H31.25V27.0832ZM22.9167 27.0832H27.0833V22.9165H22.9167V27.0832Z" fill="white"/>
</g>
</svg>
