<svg width="50" height="50" viewBox="0 0 50 50" fill="none" xmlns="http://www.w3.org/2000/svg">
<g id="groups">
<path id="Vector" d="M8.33333 27.0833C10.625 27.0833 12.5 25.2083 12.5 22.9167C12.5 20.625 10.625 18.75 8.33333 18.75C6.04167 18.75 4.16667 20.625 4.16667 22.9167C4.16667 25.2083 6.04167 27.0833 8.33333 27.0833ZM10.6875 29.375C9.91667 29.25 9.14583 29.1667 8.33333 29.1667C6.27083 29.1667 4.3125 29.6042 2.54167 30.375C1 31.0417 0 32.5417 0 34.2292V37.5H9.375V34.1458C9.375 32.4167 9.85417 30.7917 10.6875 29.375ZM41.6667 27.0833C43.9583 27.0833 45.8333 25.2083 45.8333 22.9167C45.8333 20.625 43.9583 18.75 41.6667 18.75C39.375 18.75 37.5 20.625 37.5 22.9167C37.5 25.2083 39.375 27.0833 41.6667 27.0833ZM50 34.2292C50 32.5417 49 31.0417 47.4583 30.375C45.6875 29.6042 43.7292 29.1667 41.6667 29.1667C40.8542 29.1667 40.0833 29.25 39.3125 29.375C40.1458 30.7917 40.625 32.4167 40.625 34.1458V37.5H50V34.2292ZM33.8333 28.4375C31.3958 27.3542 28.3958 26.5625 25 26.5625C21.6042 26.5625 18.6042 27.375 16.1667 28.4375C13.9167 29.4375 12.5 31.6875 12.5 34.1458V37.5H37.5V34.1458C37.5 31.6875 36.0833 29.4375 33.8333 28.4375ZM16.8125 33.3333C17 32.8542 17.0833 32.5208 18.7083 31.8958C20.7292 31.1042 22.8542 30.7292 25 30.7292C27.1458 30.7292 29.2708 31.1042 31.2917 31.8958C32.8958 32.5208 32.9792 32.8542 33.1875 33.3333H16.8125ZM25 16.6667C26.1458 16.6667 27.0833 17.6042 27.0833 18.75C27.0833 19.8958 26.1458 20.8333 25 20.8333C23.8542 20.8333 22.9167 19.8958 22.9167 18.75C22.9167 17.6042 23.8542 16.6667 25 16.6667ZM25 12.5C21.5417 12.5 18.75 15.2917 18.75 18.75C18.75 22.2083 21.5417 25 25 25C28.4583 25 31.25 22.2083 31.25 18.75C31.25 15.2917 28.4583 12.5 25 12.5Z" fill="white"/>
</g>
</svg>
