<svg width="50" height="50" viewBox="0 0 50 50" fill="none" xmlns="http://www.w3.org/2000/svg">
<g id="link">
<path id="Vector" d="M35.4167 14.5833H27.0834V18.7499H35.4167C38.8542 18.7499 41.6667 21.5624 41.6667 24.9999C41.6667 28.4374 38.8542 31.2499 35.4167 31.2499H27.0834V35.4166H35.4167C41.1667 35.4166 45.8334 30.7499 45.8334 24.9999C45.8334 19.2499 41.1667 14.5833 35.4167 14.5833ZM22.9167 31.2499H14.5834C11.1459 31.2499 8.33341 28.4374 8.33341 24.9999C8.33341 21.5624 11.1459 18.7499 14.5834 18.7499H22.9167V14.5833H14.5834C8.83341 14.5833 4.16675 19.2499 4.16675 24.9999C4.16675 30.7499 8.83341 35.4166 14.5834 35.4166H22.9167V31.2499ZM16.6667 22.9166H33.3334V27.0833H16.6667V22.9166Z" fill="white"/>
</g>
</svg>
