<svg width="50" height="50" viewBox="0 0 50 50" fill="none" xmlns="http://www.w3.org/2000/svg">
<g id="settings">
<path id="Vector" d="M40.4837 27.0415C40.567 26.3748 40.6295 25.7082 40.6295 24.9998C40.6295 24.2915 40.567 23.6248 40.4837 22.9582L44.8796 19.5207C45.2754 19.2082 45.3795 18.6457 45.1295 18.1873L40.9629 10.979C40.7754 10.6457 40.4212 10.4582 40.0462 10.4582C39.9212 10.4582 39.7962 10.479 39.692 10.5207L34.5045 12.604C33.4212 11.7707 32.2545 11.0832 30.9837 10.5623L30.192 5.0415C30.1295 4.5415 29.692 4.1665 29.1712 4.1665H20.8379C20.317 4.1665 19.8795 4.5415 19.817 5.0415L19.0254 10.5623C17.7545 11.0832 16.5879 11.7915 15.5045 12.604L10.317 10.5207C10.192 10.479 10.067 10.4582 9.94205 10.4582C9.58788 10.4582 9.23372 10.6457 9.04622 10.979L4.87955 18.1873C4.60871 18.6457 4.73372 19.2082 5.12955 19.5207L9.52538 22.9582C9.44205 23.6248 9.37955 24.3123 9.37955 24.9998C9.37955 25.6873 9.44205 26.3748 9.52538 27.0415L5.12955 30.479C4.73372 30.7915 4.62955 31.354 4.87955 31.8123L9.04622 39.0207C9.23372 39.354 9.58788 39.5415 9.96288 39.5415C10.0879 39.5415 10.2129 39.5207 10.317 39.479L15.5045 37.3957C16.5879 38.229 17.7545 38.9165 19.0254 39.4373L19.817 44.9582C19.8795 45.4582 20.317 45.8332 20.8379 45.8332H29.1712C29.692 45.8332 30.1295 45.4582 30.192 44.9582L30.9837 39.4373C32.2545 38.9165 33.4212 38.2082 34.5045 37.3957L39.692 39.479C39.817 39.5207 39.942 39.5415 40.067 39.5415C40.4212 39.5415 40.7754 39.354 40.9629 39.0207L45.1295 31.8123C45.3795 31.354 45.2754 30.7915 44.8796 30.479L40.4837 27.0415ZM36.3587 23.479C36.442 24.1248 36.4629 24.5623 36.4629 24.9998C36.4629 25.4373 36.4212 25.8957 36.3587 26.5207L36.067 28.8748L37.9212 30.3332L40.1712 32.0832L38.7129 34.604L36.067 33.5415L33.9004 32.6665L32.0254 34.0832C31.1295 34.7498 30.2754 35.2498 29.4212 35.604L27.2129 36.4998L26.8795 38.854L26.4629 41.6665H23.5462L22.817 36.4998L20.6087 35.604C19.7129 35.229 18.8795 34.7498 18.0462 34.1248L16.1504 32.6665L13.942 33.5623L11.2962 34.6248L9.83788 32.104L12.0879 30.354L13.942 28.8957L13.6504 26.5415C13.5879 25.8957 13.5462 25.4165 13.5462 24.9998C13.5462 24.5832 13.5879 24.104 13.6504 23.479L13.942 21.1248L12.0879 19.6665L9.83788 17.9165L11.2962 15.3957L13.942 16.4582L16.1087 17.3332L17.9837 15.9165C18.8795 15.2498 19.7337 14.7498 20.5879 14.3957L22.7962 13.4998L23.1295 11.1457L23.5462 8.33317H26.442L27.1712 13.4998L29.3795 14.3957C30.2754 14.7707 31.1087 15.2498 31.942 15.8748L33.8379 17.3332L36.0462 16.4373L38.692 15.3748L40.1504 17.8957L37.9212 19.6665L36.067 21.1248L36.3587 23.479ZM25.0045 16.6665C20.4004 16.6665 16.6712 20.3957 16.6712 24.9998C16.6712 29.604 20.4004 33.3332 25.0045 33.3332C29.6087 33.3332 33.3379 29.604 33.3379 24.9998C33.3379 20.3957 29.6087 16.6665 25.0045 16.6665ZM25.0045 29.1665C22.7129 29.1665 20.8379 27.2915 20.8379 24.9998C20.8379 22.7082 22.7129 20.8332 25.0045 20.8332C27.2962 20.8332 29.1712 22.7082 29.1712 24.9998C29.1712 27.2915 27.2962 29.1665 25.0045 29.1665Z" fill="white"/>
</g>
</svg>
